Coordinates
version=1
nRows=8
nColumns=40
inDegrees=yes

Units are S.I. units (second, meters, Newtons, ...)
Angles are in degrees.

endheader
time	pelvis_tilt	pelvis_list	pelvis_rotation	pelvis_tx	pelvis_ty	pelvis_tz	hip_flexion_r	hip_adduction_r	hip_rotation_r	knee_angle_r	knee_angle_r_beta	ankle_angle_r	subtalar_angle_r	mtp_angle_r	hip_flexion_l	hip_adduction_l	hip_rotation_l	knee_angle_l	knee_angle_l_beta	ankle_angle_l	subtalar_angle_l	mtp_angle_l	lumbar_extension	lumbar_bending	lumbar_rotation	arm_flex_r	arm_add_r	arm_rot_r	elbow_flex_r	pro_sup_r	wrist_flex_r	wrist_dev_r	arm_flex_l	arm_add_l	arm_rot_l	elbow_flex_l	pro_sup_l	wrist_flex_l	wrist_dev_l
     40.32000000	     -4.82766572	     -3.25070374	     -0.66308881	      1.09228508	      0.93038697	      0.42604364	     28.63184881	     -5.83843945	     -3.76794293	     69.09686200	     69.09686200	      1.05822621	    -16.71767929	      2.52386037	     15.15853073	     -3.44502946	     -6.74514188	     23.02331824	     23.02331824	     14.75506045	    -13.40699270	      4.71908301	     -8.07007676	      6.47251260	      3.39266055	     15.89803088	    -12.91795169	    -14.17478655	     56.73825016	     45.51893169	      0.00000000	      0.00000000	      7.21134837	    -11.66886274	      5.21575307	     40.90299457	     45.91927239	      0.00000000	      0.00000000
     40.33171429	     -4.72647814	     -3.45549376	     -1.05243607	      1.09116793	      0.93116527	      0.42655002	     30.15783248	     -5.38288886	     -3.81763202	     68.04220070	     68.04220070	      1.19088656	    -16.97603684	      2.54154380	     14.03719988	     -3.70222616	     -7.05097313	     22.40998627	     22.40998627	     15.11262095	    -13.23247024	      4.66266312	     -8.34311566	      6.70199558	      3.88455993	     13.59926183	    -13.10792314	    -13.90171492	     54.26676178	     45.58527767	      0.00000000	      0.00000000	      9.34731897	    -12.10029061	      4.92377285	     42.49387306	     45.98766155	      0.00000000	      0.00000000
     40.34342857	     -4.61168106	     -3.68403625	     -1.40513692	      1.09015485	      0.93190529	      0.42702600	     31.47122052	     -4.89010675	     -3.92184771	     66.69867875	     66.69867875	      1.29315380	    -17.17818990	      2.70518459	     12.88435203	     -3.96214213	     -7.33325114	     21.75504627	     21.75504627	     15.43500073	    -13.04834843	      4.56042066	     -8.60591674	      6.95966109	      4.27110455	     11.55166324	    -13.23001629	    -13.57623601	     51.36146274	     45.66610331	      0.00000000	      0.00000000	     11.37171169	    -12.53268690	      4.67655594	     44.21810400	     46.05127130	      0.00000000	      0.00000000
     40.35514286	     -4.59890272	     -3.87326610	     -1.67194888	      1.08901241	      0.93221921	      0.42746393	     32.76857857	     -4.54684662	     -4.18823279	     65.17457721	     65.17457721	      1.45088234	    -17.05085163	      2.85239561	     12.02281791	     -4.17519544	     -7.50410494	     21.38539786	     21.38539786	     15.77706034	    -13.00258402	      4.47020548	     -8.76921083	      7.21384181	      3.81557151	      9.71417763	    -12.72768034	    -13.34235315	     49.87913659	     45.69888434	      0.00000000	      0.00000000	     13.19264520	    -13.49703177	      4.35839069	     45.17167468	     46.10997333	      0.00000000	      0.00000000
     40.36685714	     -4.45470916	     -4.09400981	     -2.08250214	      1.08814680	      0.93289065	      0.42811789	     33.72927418	     -3.96574992	     -4.20622654	     63.26269400	     63.26269400	      1.57203416	    -17.05462525	      3.54737064	     10.75749305	     -4.44666179	     -8.03320440	     20.57638668	     20.57638668	     15.85257100	    -12.64224597	      3.71980671	     -8.95749813	      7.38411949	      3.62809631	     10.62372401	    -12.70570078	    -12.28357842	     40.04279030	     46.01658076	      0.00000000	      0.00000000	     14.00967418	    -14.43322226	      4.36010316	     49.09804668	     46.17171005	      0.00000000	      0.00000000
     40.37857143	     -4.28004700	     -4.26788932	     -2.37325523	      1.08731582	      0.93340612	      0.42874559	     34.46411717	     -3.50032521	     -4.30699864	     61.05264897	     61.05264897	      1.68012495	    -16.88273561	      3.79648333	      9.52133004	     -4.59388988	     -8.24431506	     19.84937912	     19.84937912	     16.12351488	    -12.54456110	      3.72037044	     -9.35424360	      7.54623353	      3.94622431	      8.69859675	    -12.74014851	    -12.05862492	     37.88358907	     46.07409299	      0.00000000	      0.00000000	     15.83580024	    -14.81556539	      3.67927171	     50.97980247	     46.27615212	      0.00000000	      0.00000000
     40.39028571	     -4.17803437	     -4.45108773	     -2.65812829	      1.08654758	      0.93369816	      0.42938561	     35.09268590	     -3.04877846	     -4.43240642	     58.50395516	     58.50395516	      1.77822467	    -16.41199449	      3.88767265	      8.39933359	     -4.76640289	     -8.52534199	     19.19018552	     19.19018552	     16.39975000	    -12.36004901	      3.64076596	     -9.61152193	      7.79075653	      4.23719990	      6.92974382	    -12.77189769	    -11.86909239	     35.36706569	     46.15020963	      0.00000000	      0.00000000	     17.52939320	    -15.17592901	      3.05544039	     53.00944409	     46.37369013	      0.00000000	      0.00000000
     40.40200000	     -4.18290486	     -4.57468827	     -2.87907719	      1.08578509	      0.93365249	      0.43005975	     35.62963515	     -2.70686669	     -4.61982395	     55.57514457	     55.57514457	      1.60595499	    -15.82112035	      2.86332697	      7.45209592	     -4.89284399	     -8.82535478	     18.61262340	     18.61262340	     16.57837758	    -12.10404841	      3.21728912	     -9.70049574	      7.89238932	      3.47143039	      6.82612307	    -12.35096682	    -11.75833025	     30.06282708	     46.35976801	      0.00000000	      0.00000000	     17.97184663	    -16.17786830	      1.73081319	     56.63955198	     46.55289012	      0.00000000	      0.00000000
